<?xml version="1.0" encoding="utf-8"?>
<!-- Generator: Adobe Illustrator 26.4.1, SVG Export Plug-In . SVG Version: 6.00 Build 0)  -->
<svg version="1.1" id="Layer_1" xmlns="http://www.w3.org/2000/svg" xmlns:xlink="http://www.w3.org/1999/xlink" x="0px" y="0px"
	 viewBox="0 0 250 250" style="enable-background:new 0 0 250 250;" xml:space="preserve">
<style type="text/css">
	.st0{fill:none;stroke:#000000;stroke-miterlimit:10;}
	.st1{fill:none;stroke:#000000;stroke-width:0.5;stroke-miterlimit:10;}
</style>
<path class="st0" d="M206.93,246H43.07C21.49,246,4,228.51,4,206.93V43.07C4,21.49,21.49,4,43.07,4h163.85
	C228.51,4,246,21.49,246,43.07v163.85C246,228.51,228.51,246,206.93,246z"/>
<polygon class="st0" points="199.71,76.53 199.71,190 49.79,190 49.79,59 95.22,59 101.92,66.38 111.12,76.53 "/>
<path class="st0" d="M115.21,120.81"/>
<path class="st1" d="M148.5,102.82"/>
<path class="st0" d="M154.66,124.57c0.73,19.63-26.7,34.87-28.04,35.63c-0.04,0.02-0.07,0.02-0.11,0.01
	c-1.42-0.63-31.09-14.24-29.87-35.63c0.93-16.27,24.43-23.87,29.79,4.53c0.03,0.15,0.23,0.15,0.26,0
	C131.45,100.69,154.05,108.13,154.66,124.57z"/>
</svg>
