<?xml version="1.0" encoding="utf-8"?>
<!-- Generator: Adobe Illustrator 26.4.1, SVG Export Plug-In . SVG Version: 6.00 Build 0)  -->
<svg version="1.1" id="Layer_1" xmlns="http://www.w3.org/2000/svg" xmlns:xlink="http://www.w3.org/1999/xlink" x="0px" y="0px"
	 viewBox="0 0 250 250" style="enable-background:new 0 0 250 250;" xml:space="preserve">
<style type="text/css">
	.st0{fill:none;stroke:#000000;stroke-miterlimit:10;}
</style>
<path class="st0" d="M207.43,246.5H43.57c-21.58,0-39.07-17.49-39.07-39.07V43.57C4.5,21.99,21.99,4.5,43.57,4.5h163.85
	c21.58,0,39.07,17.49,39.07,39.07v163.85C246.5,229.01,229.01,246.5,207.43,246.5z"/>
<path class="st0" d="M137.5,125.5c0,0.87-0.09,1.72-0.27,2.54c-0.34,1.57-0.98,3.02-1.86,4.29c-0.9,1.3-2.04,2.4-3.37,3.26
	c-1.3,0.84-2.77,1.44-4.36,1.72c-0.69,0.12-1.41,0.19-2.14,0.19c-0.87,0-1.72-0.09-2.54-0.27c-1.57-0.34-3.02-0.98-4.29-1.86
	c-1.3-0.9-2.4-2.04-3.26-3.37c-0.84-1.3-1.44-2.77-1.72-4.36c-0.12-0.69-0.19-1.41-0.19-2.14c0-0.87,0.09-1.72,0.27-2.54
	c0.34-1.57,0.98-3.02,1.86-4.29c0.9-1.3,2.04-2.4,3.37-3.26c1.3-0.84,2.77-1.44,4.36-1.72c0.69-0.12,1.41-0.19,2.14-0.19
	c0.87,0,1.72,0.09,2.54,0.27c1.57,0.34,3.02,0.98,4.29,1.86c1.3,0.9,2.4,2.04,3.26,3.37c0.84,1.3,1.44,2.77,1.72,4.36
	C137.43,124.05,137.5,124.77,137.5,125.5z"/>
<path class="st0" d="M148.5,54.14v45.72c0,1.32-0.12,2.61-0.37,3.86c-1.31,6.97-6.12,12.69-12.54,15.28
	c-0.86-1.33-1.96-2.47-3.26-3.37c-1.27-0.88-2.72-1.52-4.29-1.86c-0.82-0.18-1.67-0.27-2.54-0.27c-0.73,0-1.45,0.07-2.14,0.19
	c-1.59,0.28-3.06,0.88-4.36,1.72c-1.33,0.86-2.47,1.96-3.37,3.26c-6.28-2.84-10.88-8.74-11.91-15.8c-0.15-0.98-0.22-1.99-0.22-3.01
	V54.14c0-11.4,9.24-20.64,20.64-20.64h3.72C139.26,33.5,148.5,42.74,148.5,54.14z"/>
<path class="st0" d="M128.04,113.77c-0.82-0.18-1.67-0.27-2.54-0.27c-0.73,0-1.45,0.07-2.14,0.19c-1.59,0.28-3.06,0.88-4.36,1.72
	c-1.33,0.86-2.47,1.96-3.37,3.26c-0.88,1.27-1.52,2.72-1.86,4.29c-0.18,0.82-0.27,1.67-0.27,2.54c0,0.73,0.07,1.45,0.19,2.14
	c-6.46,2.44-13.88,1.52-19.6-2.74c-0.8-0.6-1.56-1.26-2.28-1.98L59.49,90.6c-8.06-8.06-8.06-21.13,0-29.2l2.62-2.62
	c8.06-8.06,21.14-8.06,29.2,0l32.32,32.32c0.93,0.93,1.76,1.94,2.47,2.99C130.1,99.95,130.74,107.4,128.04,113.77z"/>
<path class="st0" d="M118.67,135.37c-2.84,6.28-8.74,10.88-15.8,11.91c-0.98,0.15-1.99,0.22-3.01,0.22H54.14
	c-11.4,0-20.64-9.24-20.64-20.64v-3.72c0-11.4,9.24-20.64,20.64-20.64h45.72c1.32,0,2.61,0.12,3.86,0.37
	c6.97,1.31,12.69,6.12,15.28,12.54c-1.33,0.86-2.47,1.96-3.37,3.26c-0.88,1.27-1.52,2.72-1.86,4.29c-0.18,0.82-0.27,1.67-0.27,2.54
	c0,0.73,0.07,1.45,0.19,2.14c0.28,1.59,0.88,3.06,1.72,4.36C116.27,133.33,117.37,134.47,118.67,135.37z"/>
<path class="st0" d="M124.9,156.91c-0.6,0.8-1.26,1.56-1.98,2.28L90.6,191.51c-8.06,8.06-21.13,8.06-29.2,0l-2.62-2.62
	c-8.06-8.06-8.06-21.14,0-29.2l12.19-12.19l20.13-20.13c0.93-0.93,1.94-1.76,2.99-2.47c5.86-4,13.31-4.64,19.68-1.94
	c-0.18,0.82-0.27,1.67-0.27,2.54c0,0.73,0.07,1.45,0.19,2.14c0.28,1.59,0.88,3.06,1.72,4.36c0.86,1.33,1.96,2.47,3.26,3.37
	c1.27,0.88,2.72,1.52,4.29,1.86c0.82,0.18,1.67,0.27,2.54,0.27c0.73,0,1.45-0.07,2.14-0.19
	C130.08,143.77,129.16,151.19,124.9,156.91z"/>
<path class="st0" d="M147.5,151.14v45.72c0,11.4-9.24,20.64-20.64,20.64h-3.72c-11.4,0-20.64-9.24-20.64-20.64v-45.72
	c0-1.32,0.12-2.61,0.37-3.86c1.31-6.97,6.12-12.69,12.54-15.28c0.86,1.33,1.96,2.47,3.26,3.37c1.27,0.88,2.72,1.52,4.29,1.86
	c0.82,0.18,1.67,0.27,2.54,0.27c0.73,0,1.45-0.07,2.14-0.19c1.59-0.28,3.06-0.88,4.36-1.72c1.33-0.86,2.47-1.96,3.37-3.26
	c6.28,2.84,10.88,8.74,11.91,15.8C147.43,149.11,147.5,150.12,147.5,151.14z"/>
<path class="st0" d="M191.51,189.6l-2.62,2.62c-8.06,8.06-21.14,8.06-29.2,0l-32.32-32.32c-0.93-0.93-1.76-1.94-2.47-2.99
	c-4-5.86-4.64-13.31-1.94-19.68c0.82,0.18,1.67,0.27,2.54,0.27c0.73,0,1.45-0.07,2.14-0.19c1.59-0.28,3.06-0.88,4.36-1.72
	c1.33-0.86,2.47-1.96,3.37-3.26c0.88-1.27,1.52-2.72,1.86-4.29c0.18-0.82,0.27-1.67,0.27-2.54c0-0.73-0.07-1.45-0.19-2.14
	c6.46-2.44,13.88-1.52,19.6,2.74c0.8,0.6,1.56,1.26,2.28,1.98l20.42,20.42l11.9,11.9C199.57,168.46,199.57,181.53,191.51,189.6z"/>
<path class="st0" d="M217.5,124.14v3.72c0,11.4-9.24,20.64-20.64,20.64h-45.72c-1.32,0-2.61-0.12-3.86-0.37
	c-6.97-1.31-12.69-6.12-15.28-12.54c1.33-0.86,2.47-1.96,3.37-3.26c0.88-1.27,1.52-2.72,1.86-4.29c0.18-0.82,0.27-1.67,0.27-2.54
	c0-0.73-0.07-1.45-0.19-2.14c-0.28-1.59-0.88-3.06-1.72-4.36c-0.86-1.33-1.96-2.47-3.26-3.37c2.84-6.28,8.74-10.88,15.8-11.91
	c0.98-0.15,1.99-0.22,3.01-0.22h45.72C208.26,103.5,217.5,112.74,217.5,124.14z"/>
<path class="st0" d="M192.22,91.31l-12.19,12.19l-20.13,20.13c-0.93,0.93-1.94,1.76-2.99,2.47c-5.86,4-13.31,4.64-19.68,1.94
	c0.18-0.82,0.27-1.67,0.27-2.54c0-0.73-0.07-1.45-0.19-2.14c-0.28-1.59-0.88-3.06-1.72-4.36c-0.86-1.33-1.96-2.47-3.26-3.37
	c-1.27-0.88-2.72-1.52-4.29-1.86c-0.82-0.18-1.67-0.27-2.54-0.27c-0.73,0-1.45,0.07-2.14,0.19c-2.44-6.46-1.52-13.88,2.74-19.6
	c0.6-0.8,1.26-1.56,1.98-2.28l32.32-32.32c8.06-8.06,21.13-8.06,29.2,0l2.62,2.62C200.28,70.17,200.28,83.25,192.22,91.31z"/>
</svg>
