<?xml version="1.0" encoding="utf-8"?>
<!-- Generator: Adobe Illustrator 26.4.1, SVG Export Plug-In . SVG Version: 6.00 Build 0)  -->
<svg version="1.1" id="Layer_1" xmlns="http://www.w3.org/2000/svg" xmlns:xlink="http://www.w3.org/1999/xlink" x="0px" y="0px"
	 viewBox="0 0 250 250" style="enable-background:new 0 0 250 250;" xml:space="preserve">
<style type="text/css">
	.st0{fill:none;stroke:#000000;stroke-miterlimit:10;}
</style>
<path class="st0" d="M206.78,246H42.93c-21.58,0-39.07-17.49-39.07-39.07V43.07C3.86,21.49,21.35,4,42.93,4h163.85
	c21.58,0,39.07,17.49,39.07,39.07v163.85C245.86,228.51,228.36,246,206.78,246z"/>
<g>
	<line class="st0" x1="85" y1="55.94" x2="63.07" y2="117.5"/>
	<polyline class="st0" points="60.58,124.5 36.12,193.15 29.53,190.8 81.88,43.85 85,44.96 	"/>
	<line class="st0" x1="106.93" y1="117.5" x2="85" y2="55.94"/>
	<polyline class="st0" points="85,44.96 88.12,43.85 140.47,190.8 133.88,193.15 109.42,124.5 	"/>
	<line class="st0" x1="106.93" y1="117.5" x2="63.07" y2="117.5"/>
	<line class="st0" x1="109.42" y1="124.5" x2="60.58" y2="124.5"/>
</g>
<path class="st0" d="M136.5,95.5"/>
<g>
	<path class="st0" d="M145.14,136.38c1.8-3.91,4.9-8.6,10.11-12.5c2.87-2.15,8.96-5.85,17.6-6.66c3.18-0.29,9.57-0.37,16.79,2.48
		c6.13,2.42,10.81,6.65,14.29,12.91c2.62,4.71,4.62,8.96,4.68,16.94c0.01,1.51-0.06,2.09-0.33,4.56c-0.21,1.86-0.56,4.98-1.12,10.62
		c-0.75,7.6-0.84,9.22-0.58,11.52c0.39,3.46,1.39,6.88,2.97,10.15l-5.2,2.37c-0.85-1.75-1.56-3.54-2.11-5.36"/>
	<path class="st0" d="M150.81,137.78c1.54-3.05,4.03-6.55,7.97-9.5c1.9-1.42,7.15-4.82,14.63-5.52c2.12-0.2,7.76-0.39,14.06,2.1
		c3.1,1.22,7.65,3.63,11.41,10.4c2.39,4.29,3.96,7.61,4,14.34c0.01,1.18-0.04,1.55-0.3,3.91c-0.05,0.39-0.09,0.82-0.15,1.31"/>
	<path class="st0" d="M177.8,186.09c-13.03,0.8-24.07-6.03-24.63-15.26c-0.56-9.22,9.55-17.36,22.59-18.15
		c20.96-1.29,23.93,3.7,24.63,15.26C201.18,180.88,196.96,184.92,177.8,186.09z M202.42,154.83c-4.15-6.45-12.4-8.48-27-7.59
		c-16.29,0.99-28.45,11.51-27.69,23.93c0.76,12.41,14.12,21.36,30.41,20.36c11.52-0.71,19.73-2.53,24.11-8.12"/>
	<path class="st0" d="M177.8,186.09c-13.03,0.8-24.07-6.03-24.63-15.26c-0.56-9.22,9.55-17.36,22.59-18.15
		c20.96-1.29,23.93,3.7,24.63,15.26C201.18,180.88,196.96,184.92,177.8,186.09z"/>
	<path class="st0" d="M177.8,186.09c-13.03,0.8-24.07-6.03-24.63-15.26c-0.56-9.22,9.55-17.36,22.59-18.15
		c20.96-1.29,23.93,3.7,24.63,15.26C201.18,180.88,196.96,184.92,177.8,186.09z"/>
	<line class="st0" x1="150.81" y1="137.78" x2="145.14" y2="136.38"/>
</g>
</svg>
